<svg width="194" height="194" viewBox="0 0 194 194" fill="none" xmlns="http://www.w3.org/2000/svg">
<path d="M193.796 84.5723L180.432 97.9395C174.031 104.342 170.315 108.538 166.904 112.136C163.908 115.296 160.13 119.19 154.854 121.512C149.445 123.891 143.995 123.97 139.438 123.907C138.363 123.892 137.188 123.861 135.938 123.823C135.363 143.223 123.782 159.22 113.514 169.699C106.446 176.913 98.9965 182.592 93.3878 186.396C90.5704 188.307 88.1207 189.811 86.2921 190.851C85.4094 191.352 84.5224 191.831 83.7354 192.21C83.4521 192.346 82.679 192.716 81.7491 193.032C81.4669 193.128 81.0011 193.278 80.419 193.416C79.9939 193.517 78.6773 193.821 76.9669 193.799C76.156 193.788 74.614 193.704 72.7833 193.105L72.4131 192.979C70.7497 192.383 68.3981 191.163 66.4297 188.827C59.7609 190.488 52.0871 189.874 43.7042 186.766C39.3217 185.142 36.3134 181.868 34.7403 178.309C31.4569 180.372 28.0039 180.796 25.3126 180.554C19.9817 180.074 15.2939 176.897 12.7764 172.252L12.7579 172.217L12.7012 172.115L12.6495 172.012L12.6133 171.94C9.86059 166.574 7.25573 161.257 5.3526 156.216C3.46016 151.202 1.91027 145.58 1.94635 139.695L1.95612 139.107C2.05927 134.852 3.00266 130.716 4.89948 126.819C4.65455 126.608 4.41039 126.386 4.17096 126.149C0.670362 122.692 0.165998 118.666 0.053772 117.396C-0.0692585 116.001 0.0389774 114.792 0.176819 113.916C0.247033 113.47 0.328152 113.09 0.400452 112.791C0.457977 112.554 0.518673 112.338 0.531311 112.294C0.86236 111.106 1.29785 110.144 1.45123 109.807C1.87369 108.877 2.40226 107.883 2.91705 106.969L3.34479 106.223C4.39133 104.419 5.78948 102.185 7.49323 99.6963C11.3741 94.0267 17.1504 86.5662 24.4366 79.5322C34.9107 69.4208 50.9088 57.9917 70.0938 57.6172C70.0597 56.5233 70.0306 55.5135 70.0128 54.6309C69.9241 50.2522 69.9008 44.8225 72.126 39.4297C74.3533 34.0325 78.2066 30.1791 81.4483 27.0674L82.9005 25.6865C86.3076 22.4753 89.98 19.1771 95.8751 13.3711L109.245 0L193.796 84.5723ZM100.825 18.3203C94.1091 24.9367 89.8442 28.7104 86.295 32.1172C84.6743 33.6729 83.153 35.1929 81.835 36.8115C81.6704 37.0137 81.5087 37.2173 81.3506 37.4229C80.7179 38.2457 80.1392 39.0974 79.628 39.9951C79.5641 40.1073 79.5013 40.2203 79.4395 40.334C79.1307 40.9024 78.8485 41.4896 78.5967 42.0996C77.6909 44.2948 77.2741 46.5488 77.0987 48.8838C77.0402 49.6619 77.0092 50.4491 76.9952 51.2461C76.9858 51.7775 76.9838 52.3132 76.9874 52.8535C76.991 53.394 76.9997 53.9393 77.0108 54.4893C77.0703 57.429 77.218 60.7672 77.3204 65.0693C57.7998 62.1755 40.7945 73.4698 29.2979 84.5684C25.4388 88.2939 22.0173 92.1608 19.1055 95.79C18.7818 96.1935 18.4644 96.5941 18.1534 96.9912C16.2883 99.3725 14.6529 101.63 13.2696 103.65C12.5768 104.663 11.9417 105.624 11.3672 106.521C10.9843 107.118 10.6288 107.687 10.3008 108.224C9.80891 109.028 9.37934 109.759 9.01666 110.403C8.54611 111.239 8.12723 112.034 7.82428 112.701C7.70422 112.965 7.45484 113.526 7.27448 114.173C7.23926 114.299 6.90433 115.396 7.02643 116.779C7.0835 117.426 7.33925 119.44 9.0899 121.169C9.22456 121.302 9.36187 121.427 9.50006 121.544C10.191 122.131 10.9208 122.527 11.6407 122.783C13.0801 123.295 14.4786 123.249 15.4405 123.051C15.7067 122.996 15.9856 122.964 16.2755 122.955C15.2397 123.97 14.3011 125.036 13.4659 126.158C12.7909 127.065 12.196 127.992 11.6788 128.938C11.4571 129.344 11.2503 129.754 11.0567 130.166C10.9277 130.441 10.8043 130.717 10.6876 130.995C10.6292 131.134 10.5729 131.273 10.5176 131.413C10.3517 131.832 10.1994 132.254 10.0606 132.68C9.96812 132.963 9.88148 133.248 9.80084 133.534C9.39734 134.966 9.14069 136.432 9.02252 137.929C8.9989 138.228 8.98148 138.528 8.96881 138.83C8.95614 139.132 8.94822 139.434 8.94635 139.738C8.93741 141.196 9.05175 142.659 9.26666 144.121C9.35264 144.706 9.45467 145.291 9.57135 145.876C10.0963 148.508 10.9174 151.137 11.9014 153.744C12.4504 155.199 13.0677 156.689 13.7403 158.215C13.8748 158.52 14.0115 158.827 14.1505 159.135C15.5393 162.214 17.1409 165.431 18.8565 168.775L18.8926 168.847L18.9307 168.916C20.3606 171.554 23.0038 173.318 25.9385 173.582C27.4384 173.717 29.3145 173.471 31.0704 172.35C32.8945 171.184 34.0783 169.386 34.5352 167.415L34.5372 167.416C34.5898 167.192 34.6656 166.947 34.7628 166.684C35.1029 165.763 35.7079 164.631 36.5255 163.497C36.8758 163.011 37.2654 162.525 37.6895 162.056C38.2552 161.429 38.8829 160.832 39.5626 160.303C39.7247 160.176 39.8831 160.059 40.0372 159.949C40.1914 159.84 40.3419 159.738 40.4883 159.645C41.8067 158.801 42.8154 158.586 43.6202 158.69C43.7988 158.714 43.9673 158.753 44.127 158.804C44.3667 158.88 44.5865 158.985 44.7901 159.105L44.796 159.109C46.321 160.012 46.6019 160.658 46.6299 160.725C46.6539 160.781 46.7344 160.965 46.5987 161.493C46.4457 162.089 46.0661 162.879 45.4346 163.725C44.8035 164.57 44.1336 165.185 43.7335 165.475C40.1475 168.037 40.0934 172.12 40.7422 174.378C41.4328 176.781 43.2639 179.138 46.1358 180.202C56.2807 183.965 64.2523 183.247 70.1163 179.879C70.1225 180.915 70.3677 182.099 71.084 183.325C72.1491 185.148 73.7224 186.012 74.7735 186.389C75.7721 186.746 76.6229 186.794 77.0557 186.8C77.9193 186.811 78.5869 186.656 78.8008 186.605C79.103 186.534 79.3472 186.456 79.4952 186.405C80.0078 186.231 80.4686 186.013 80.7012 185.901C81.2871 185.62 82.0206 185.227 82.8321 184.766C84.488 183.824 86.7812 182.419 89.4581 180.604C94.7984 176.981 101.858 171.593 108.514 164.8C119.733 153.349 131.187 136.381 128.585 116.59C129.513 116.616 130.4 116.643 131.246 116.67C134.441 116.771 137.219 116.876 139.533 116.908C140.377 116.92 141.208 116.924 142.024 116.912C142.297 116.908 142.568 116.902 142.837 116.894C145.667 116.809 148.345 116.489 150.932 115.547C151.178 115.457 151.423 115.362 151.668 115.261C151.79 115.21 151.912 115.158 152.034 115.104C152.994 114.682 153.896 114.185 154.756 113.626C154.971 113.486 155.184 113.343 155.395 113.195C157.076 112.018 158.608 110.609 160.122 109.082C160.69 108.509 161.255 107.92 161.824 107.319C162.23 106.891 162.647 106.447 163.078 105.985C166.095 102.755 169.811 98.6627 175.482 92.9902L183.898 84.5723L109.244 9.90039L100.825 18.3203ZM77.5831 169.864C78.8675 172.382 79.4181 175.758 77.169 179.708C79.4178 175.758 78.8672 172.382 77.5831 169.864ZM48.1788 173.435H48.1797C48.2389 173.476 48.3012 173.514 48.3663 173.548C48.4312 173.582 48.4988 173.613 48.5694 173.639C50.7174 174.435 52.6862 174.978 54.4893 175.312C54.7469 175.359 55.0011 175.402 55.252 175.441C56.2556 175.598 57.2059 175.688 58.1055 175.72C55.4067 175.626 52.252 175.005 48.5694 173.639C48.4278 173.586 48.2971 173.517 48.1788 173.435ZM47.8389 171.143C47.9658 171.051 48.0956 170.953 48.2266 170.85C48.0956 170.953 47.9658 171.051 47.8389 171.143C47.7358 171.213 47.6521 171.298 47.587 171.395C47.6521 171.298 47.7357 171.213 47.8389 171.143ZM49.8477 169.342V169.343V169.342ZM76.9503 168.775C77.1457 169.077 77.3353 169.393 77.5108 169.726C77.3354 169.393 77.1457 169.077 76.9503 168.775ZM76.4024 167.994C76.4482 168.055 76.4957 168.115 76.5411 168.177C76.4957 168.115 76.4481 168.055 76.4024 167.994ZM52.1153 166.281C52.0064 166.472 51.8936 166.66 51.7774 166.845L51.418 167.39C51.6634 167.033 51.8973 166.662 52.1153 166.28V166.281ZM25.2237 165.804V165.803V165.804ZM52.7169 165.103C52.6716 165.203 52.625 165.303 52.5772 165.402L52.4297 165.699C52.5301 165.503 52.6262 165.304 52.7169 165.103ZM73.9786 165.475C74.0335 165.52 74.0929 165.566 74.1534 165.617C74.0929 165.566 74.0335 165.52 73.9786 165.475ZM53.4551 162.913C53.4313 163.02 53.4063 163.127 53.379 163.233L53.2911 163.552C53.3218 163.446 53.3506 163.34 53.378 163.233L53.4551 162.913ZM53.671 160.792C53.6647 160.518 53.646 160.243 53.6104 159.968C53.646 160.243 53.6647 160.518 53.671 160.792ZM42.003 151.738C41.8976 151.752 41.7926 151.768 41.6876 151.785C41.7926 151.768 41.8976 151.752 42.003 151.738ZM98.3067 146.41C97.2403 147.478 96.0843 148.632 94.8301 149.887L94.8292 149.886C96.0833 148.631 97.2404 147.478 98.3067 146.41ZM17.2813 147.841C17.3254 147.987 17.3699 148.135 17.4161 148.282C17.37 148.135 17.3254 147.987 17.2813 147.841ZM150.399 84.7422C144.315 91.0498 141.917 92.3902 139.481 92.9121C139.262 92.9589 139.036 93 138.801 93.0361C138.565 93.0723 138.319 93.1039 138.061 93.1299C137.285 93.2076 136.393 93.2399 135.303 93.2344C134.213 93.2289 132.924 93.1856 131.355 93.1104C129.353 93.0143 127.003 92.8764 124.252 92.7627C121.501 92.6491 118.348 92.5596 114.744 92.5596H114.705L102.878 92.625L102.813 104.454V104.531C102.829 107.506 102.889 110.164 102.966 112.536C103.094 116.49 103.27 119.649 103.374 122.16C103.44 123.75 103.47 125.003 103.464 126.019C103.462 126.357 103.456 126.669 103.446 126.959C103.411 127.973 103.326 128.711 103.19 129.331C103.171 129.419 103.15 129.506 103.129 129.59C103.096 129.72 103.059 129.853 103.015 129.989C102.927 130.262 102.813 130.552 102.654 130.874C102.575 131.035 102.484 131.205 102.38 131.385C101.963 132.103 101.331 132.984 100.334 134.154C98.9933 135.728 97.2338 137.555 94.8262 139.982L53.6739 98.8184C59.7561 92.5135 62.1638 91.1701 64.6085 90.6455C66.1462 90.3156 68.0204 90.2549 71.2696 90.377C71.7335 90.3944 72.226 90.4158 72.7491 90.4404C76.7533 90.6289 82.1523 90.9828 89.3565 90.9766H101.233V79.0645C101.229 78.0726 101.22 77.1159 101.206 76.1934C101.179 74.3483 101.137 72.6394 101.087 71.0576C101.062 70.2668 101.036 69.5078 101.008 68.7793C100.952 67.3222 100.892 65.9874 100.836 64.7656C100.78 63.5441 100.728 62.4355 100.688 61.4307C100.569 58.5135 100.571 56.7299 100.694 55.46C100.728 55.1134 100.771 54.8051 100.823 54.5225C100.858 54.3345 100.897 54.1573 100.94 53.9883C101.056 53.5303 101.225 53.0451 101.545 52.4482C101.636 52.2776 101.741 52.0981 101.859 51.9072C101.978 51.7165 102.111 51.5146 102.261 51.2998C102.336 51.1924 102.415 51.0819 102.499 50.9678C102.667 50.7394 102.852 50.4967 103.058 50.2383C103.161 50.1089 103.269 49.9756 103.383 49.8379C103.496 49.7004 103.615 49.5583 103.739 49.4121C105.08 47.8374 106.839 46.0081 109.247 43.5801L150.399 84.7422ZM106.518 137.655C106.329 137.892 106.132 138.133 105.927 138.379C105.982 138.312 106.038 138.247 106.092 138.182C106.239 138.004 106.38 137.828 106.518 137.655ZM107.289 136.642C107.208 136.753 107.125 136.865 107.04 136.978C107.125 136.865 107.208 136.753 107.289 136.642ZM107.659 136.117C107.575 136.24 107.489 136.363 107.4 136.487C107.489 136.363 107.575 136.24 107.659 136.117ZM107.967 135.655C107.887 135.778 107.806 135.901 107.722 136.025C107.806 135.901 107.887 135.778 107.967 135.655ZM108.249 135.206C108.193 135.298 108.136 135.389 108.078 135.481C108.136 135.389 108.193 135.298 108.249 135.206ZM108.542 134.704C108.488 134.801 108.432 134.898 108.375 134.995C108.432 134.898 108.488 134.801 108.542 134.704ZM108.826 134.178C108.762 134.303 108.695 134.429 108.626 134.555C108.695 134.429 108.762 134.303 108.826 134.178ZM109.065 133.688C109.006 133.816 108.944 133.945 108.88 134.073C108.944 133.945 109.006 133.816 109.065 133.688ZM109.806 131.709C109.776 131.813 109.743 131.916 109.711 132.02C109.743 131.916 109.776 131.813 109.806 131.709ZM109.942 131.191C109.913 131.31 109.882 131.428 109.85 131.545C109.882 131.428 109.913 131.31 109.942 131.191ZM110.059 130.677C110.031 130.809 110 130.94 109.97 131.07C110 130.94 110.031 130.809 110.059 130.677ZM110.154 130.166C110.13 130.305 110.105 130.443 110.078 130.579C110.105 130.443 110.13 130.305 110.154 130.166ZM110.232 129.675C110.212 129.809 110.192 129.942 110.17 130.073C110.192 129.942 110.212 129.809 110.232 129.675ZM72.42 97.4326C68.1443 97.2314 66.8206 97.3308 66.0772 97.4902C65.9458 97.5184 65.4616 97.4942 63.6944 98.9395L94.7061 129.96L95.0059 129.614C95.8462 128.628 96.1933 128.1 96.3243 127.874C96.3355 127.855 96.3442 127.838 96.3516 127.824C96.3732 127.721 96.4258 127.417 96.4503 126.716C96.4812 125.829 96.4657 124.522 96.3799 122.45C96.2188 118.559 95.8582 112.669 95.8126 104.57V104.415L95.8477 97.9766H89.3565C81.9403 97.9828 76.3146 97.6159 72.42 97.4326ZM110.297 129.167C110.284 129.279 110.271 129.391 110.256 129.501C110.271 129.391 110.284 129.279 110.297 129.167ZM110.358 128.562C110.347 128.689 110.336 128.814 110.323 128.938C110.336 128.814 110.347 128.689 110.358 128.562ZM110.409 127.874C110.398 128.057 110.385 128.236 110.371 128.413C110.385 128.236 110.398 128.057 110.409 127.874ZM110.465 125.962C110.462 126.615 110.445 127.229 110.412 127.814C110.445 127.229 110.462 126.614 110.465 125.962ZM110.441 124.097C110.449 124.412 110.455 124.719 110.459 125.019C110.455 124.719 110.449 124.412 110.441 124.097ZM25.0782 124.781C26.1146 124.065 27.248 123.357 28.4854 122.657C27.248 123.357 26.1146 124.065 25.0782 124.781ZM110.39 122.45C110.404 122.811 110.416 123.161 110.427 123.502C110.416 123.161 110.404 122.811 110.39 122.45ZM110.057 114.85C110.168 117.641 110.291 119.994 110.374 122.026C110.33 120.947 110.274 119.777 110.215 118.499C110.162 117.371 110.109 116.158 110.057 114.85ZM25.8467 119.149C26.0561 119.29 26.2589 119.429 26.4532 119.568C26.2589 119.429 26.0562 119.29 25.8467 119.149ZM22.2198 117.189C22.3595 117.248 22.4978 117.307 22.6348 117.368C22.4978 117.307 22.3595 117.248 22.2198 117.189ZM20.5333 116.584C20.8477 116.679 21.157 116.783 21.461 116.894C21.157 116.783 20.8477 116.679 20.5333 116.584ZM18.4444 116.106C18.8149 116.163 19.1805 116.236 19.5411 116.319C19.1805 116.236 18.8149 116.163 18.4444 116.106ZM17.754 116.019C17.7771 116.021 17.8002 116.023 17.8233 116.025C17.8002 116.023 17.7771 116.021 17.754 116.019ZM15.1046 113.857C14.8959 114.228 14.7161 114.56 14.5655 114.85C14.7161 114.56 14.8959 114.228 15.1046 113.857ZM17.2549 110.306C17.6125 109.747 17.9979 109.159 18.4102 108.543C18.5558 108.326 18.7059 108.106 18.8585 107.882C18.2749 108.74 17.7388 109.55 17.2549 110.306ZM139.63 109.909C140.132 109.916 140.612 109.918 141.072 109.917C140.995 109.917 140.918 109.919 140.84 109.919L139.63 109.909ZM130.582 109.646C132.039 109.691 133.381 109.735 134.621 109.775C133.381 109.735 132.039 109.691 130.582 109.646ZM128.602 109.589C128.917 109.598 129.227 109.606 129.532 109.615C129.227 109.606 128.917 109.598 128.602 109.589ZM125.669 109.516C126.11 109.525 126.543 109.537 126.967 109.547C126.543 109.537 126.11 109.525 125.669 109.516ZM109.842 107.299C109.854 108.059 109.869 108.796 109.886 109.509C109.882 109.324 109.876 109.137 109.872 108.949L109.842 107.299ZM122.779 109.462C123.244 109.469 123.699 109.479 124.147 109.487C123.699 109.479 123.244 109.469 122.779 109.462ZM147.778 109.218C147.479 109.305 147.172 109.382 146.855 109.45C147.172 109.382 147.479 109.305 147.778 109.218ZM149.177 108.712C148.898 108.833 148.615 108.944 148.325 109.044C148.615 108.944 148.898 108.833 149.177 108.712ZM21.9053 103.608C21.6438 103.959 21.3884 104.305 21.1387 104.647C21.3884 104.305 21.6438 103.959 21.9053 103.608ZM156.634 102.619C156.246 103.028 155.874 103.414 155.516 103.78C155.874 103.414 156.246 103.028 156.634 102.619ZM136.125 100.23C135.835 100.234 135.54 100.237 135.239 100.235C135.54 100.237 135.835 100.234 136.125 100.23ZM137.89 100.163C137.353 100.198 136.8 100.219 136.225 100.229C136.8 100.219 137.353 100.198 137.89 100.163ZM134.121 100.218C133.916 100.213 133.708 100.207 133.497 100.2C133.708 100.207 133.916 100.213 134.121 100.218ZM132.886 100.18C132.672 100.172 132.456 100.164 132.236 100.155C132.456 100.164 132.672 100.172 132.886 100.18ZM131.019 100.102H131.02H131.019ZM139.459 100.011C139.404 100.018 139.349 100.025 139.293 100.032C139.349 100.025 139.404 100.018 139.459 100.011ZM139.964 99.9385C139.902 99.9482 139.84 99.9566 139.777 99.9658C139.84 99.9566 139.902 99.9482 139.964 99.9385ZM141.032 99.7363C140.989 99.7458 140.946 99.7555 140.902 99.7646C140.946 99.7555 140.989 99.7458 141.032 99.7363ZM141.517 99.623C141.462 99.6367 141.408 99.65 141.354 99.6631C141.408 99.65 141.462 99.6367 141.517 99.623ZM142.564 99.3223C142.517 99.3375 142.47 99.3534 142.423 99.3682C142.47 99.3534 142.517 99.3375 142.564 99.3223ZM143.029 99.1641C142.979 99.182 142.929 99.1994 142.879 99.2168C142.929 99.1994 142.979 99.182 143.029 99.1641ZM27.3301 96.8467C26.7382 97.5328 26.1639 98.2157 25.6065 98.8916C26.1639 98.2157 26.7382 97.5328 27.3301 96.8467ZM144.045 98.7607C144.002 98.7795 143.959 98.7981 143.916 98.8164C143.959 98.7981 144.002 98.7795 144.045 98.7607ZM144.521 98.5439C144.475 98.5655 144.429 98.5863 144.384 98.6074C144.429 98.5863 144.475 98.5655 144.521 98.5439ZM145.55 98.0137C145.507 98.0374 145.465 98.0607 145.422 98.084C145.465 98.0607 145.507 98.0374 145.55 98.0137ZM146.017 97.7461C145.97 97.774 145.922 97.8008 145.875 97.8281C145.922 97.8008 145.97 97.774 146.017 97.7461ZM147.112 97.0518C147.041 97.0998 146.97 97.1477 146.899 97.1943C146.97 97.1477 147.041 97.0998 147.112 97.0518ZM147.577 96.7314C147.521 96.7712 147.464 96.8097 147.408 96.8486C147.464 96.8097 147.521 96.7712 147.577 96.7314ZM162.085 96.7812C162.294 96.5581 162.507 96.3312 162.724 96.1006C162.507 96.3312 162.294 96.5581 162.085 96.7812ZM148.186 96.2891C148.085 96.3646 147.984 96.4389 147.884 96.5117C147.984 96.4389 148.085 96.3646 148.186 96.2891ZM148.662 95.9258C148.614 95.9634 148.566 96.0011 148.518 96.0381C148.566 96.0011 148.614 95.9634 148.662 95.9258ZM149.182 95.5137C149.129 95.5561 149.077 95.5979 149.024 95.6396C149.077 95.5979 149.129 95.5561 149.182 95.5137ZM30.4962 93.3262C29.8759 93.9878 29.2702 94.6499 28.6797 95.3105C29.2702 94.6499 29.8759 93.9878 30.4962 93.3262ZM150.451 94.4434C150.188 94.6735 149.931 94.8963 149.676 95.1094C149.931 94.8963 150.188 94.6735 150.451 94.4434ZM152.288 92.7627C151.709 93.3143 151.151 93.8264 150.611 94.3027C151.151 93.8264 151.709 93.3143 152.288 92.7627ZM165.815 92.8516C166.036 92.6211 166.262 92.388 166.491 92.1514C166.262 92.388 166.036 92.6211 165.815 92.8516ZM154.327 90.7549C153.661 91.4306 153.023 92.0594 152.41 92.6455C153.023 92.0594 153.661 91.4306 154.327 90.7549ZM34.0157 89.7451C33.3158 90.4235 32.6313 91.1075 31.962 91.7939C32.6313 91.1075 33.3158 90.4235 34.0157 89.7451ZM155.375 89.6807C155.031 90.0376 154.694 90.3817 154.364 90.7158C154.694 90.3817 155.031 90.0376 155.375 89.6807ZM167.909 90.6943C168.108 90.4911 168.309 90.2846 168.513 90.0771C168.309 90.2846 168.108 90.4911 167.909 90.6943ZM170.531 88.042C169.998 88.5753 169.481 89.0963 168.98 89.6045C169.095 89.4872 169.212 89.3687 169.329 89.25L170.531 88.042ZM157.11 87.8486C156.979 87.9894 156.848 88.1289 156.719 88.2666C156.848 88.1289 156.979 87.9894 157.11 87.8486ZM158.613 86.2285C158.481 86.3728 158.348 86.5149 158.218 86.6562C158.348 86.5149 158.481 86.3728 158.613 86.2285ZM109.069 53.9502C108.229 54.9373 107.881 55.467 107.749 55.6953C107.736 55.7178 107.725 55.7361 107.717 55.751C107.695 55.8508 107.641 56.1551 107.615 56.876C107.584 57.7654 107.598 59.075 107.682 61.1475C107.839 65.0423 108.194 70.9318 108.233 79.0312V85.5947L114.667 85.5596H114.744C122.168 85.5596 127.796 85.9313 131.69 86.1182C135.964 86.3232 137.28 86.2248 138.015 86.0674L138.14 86.0459C138.382 85.9928 138.97 85.7762 140.38 84.6211L109.369 53.6035C109.266 53.7216 109.166 53.8368 109.069 53.9502ZM73.0772 83.4482H73.0782H73.0772ZM59.0704 73.5957C58.6259 73.7392 58.1835 73.8896 57.7432 74.0469C58.1835 73.8896 58.6259 73.7392 59.0704 73.5957ZM64.0967 72.3037C63.5882 72.4006 63.0821 72.5077 62.5782 72.624C63.0821 72.5077 63.5882 72.4006 64.0967 72.3037ZM66.6172 71.9082C66.1365 71.9673 65.6577 72.0362 65.1807 72.1133C65.6577 72.0362 66.1365 71.9673 66.6172 71.9082ZM93.7217 62.3584C93.7034 61.9303 93.686 61.5159 93.671 61.1143C93.686 61.5159 93.7034 61.9303 93.7217 62.3584ZM93.6485 60.4961C93.643 60.3315 93.6376 60.1691 93.6329 60.0088C93.6375 60.1691 93.643 60.3315 93.6485 60.4961ZM93.6075 58.9121C93.6068 58.8713 93.6052 58.8306 93.6046 58.79C93.6052 58.8306 93.6068 58.8713 93.6075 58.9121ZM93.6299 56.2471C93.6119 56.6858 93.6023 57.1415 93.5997 57.6172C93.6023 57.1415 93.6119 56.6858 93.6299 56.2471ZM93.6827 55.3145C93.701 55.0692 93.7229 54.8292 93.7481 54.5938C93.7229 54.8292 93.701 55.0692 93.6827 55.3145ZM93.7608 54.4893C93.7814 54.3056 93.804 54.1247 93.8292 53.9463C93.804 54.1247 93.7814 54.3056 93.7608 54.4893ZM93.9376 53.2705C93.9442 53.2343 93.9503 53.1981 93.9571 53.1621C93.9503 53.1981 93.9442 53.2343 93.9376 53.2705ZM94.1368 52.3389C94.1498 52.2866 94.1633 52.2346 94.1768 52.1826C94.1633 52.2346 94.1498 52.2866 94.1368 52.3389ZM94.3399 51.6123C94.3098 51.7103 94.28 51.8084 94.252 51.9072C94.28 51.8084 94.3098 51.7103 94.3399 51.6123ZM94.4083 51.3926C94.4243 51.3436 94.4415 51.2949 94.4581 51.2461C94.4415 51.2949 94.4243 51.3436 94.4083 51.3926ZM94.5557 50.9678C94.5706 50.9269 94.5844 50.8855 94.5997 50.8447C94.5844 50.8855 94.5706 50.9269 94.5557 50.9678ZM94.9092 50.0918C94.9373 50.0289 94.966 49.9662 94.9952 49.9033C94.966 49.9662 94.9373 50.0289 94.9092 50.0918ZM95.2354 49.4121C95.1822 49.5164 95.1302 49.6204 95.0801 49.7246C95.1302 49.6204 95.1822 49.5164 95.2354 49.4121ZM95.3672 49.1572C95.3909 49.1129 95.4152 49.0688 95.4395 49.0244C95.4152 49.0688 95.3909 49.1129 95.3672 49.1572ZM95.5723 48.7861C95.6044 48.7299 95.637 48.6736 95.67 48.6172C95.637 48.6736 95.6044 48.7299 95.5723 48.7861ZM95.8946 48.2432C95.9103 48.2177 95.9265 48.1925 95.9424 48.167C95.9265 48.1925 95.9103 48.2177 95.8946 48.2432ZM96.5538 47.2451C96.4063 47.4553 96.2659 47.6632 96.1319 47.8691C96.2659 47.6632 96.4063 47.4553 96.5538 47.2451ZM100.002 43.082C99.2458 43.9036 98.5753 44.6659 97.9805 45.3867C97.8414 45.5553 97.7061 45.7214 97.5753 45.8857C97.3997 46.1062 97.2316 46.3233 97.0704 46.5371C97.8656 45.4824 98.8315 44.3535 100.002 43.082ZM85.2637 44.3232C85.4698 43.879 85.7062 43.4431 85.9776 43.0068C85.7062 43.4431 85.4698 43.879 85.2637 44.3232ZM101.367 41.6299C101.603 41.3834 101.846 41.1325 102.096 40.875C101.846 41.1326 101.603 41.3834 101.367 41.6299ZM87.6397 40.7803C87.9048 40.4713 88.1885 40.1557 88.4913 39.8301C88.3399 39.9928 88.1936 40.1533 88.0518 40.3115L87.6397 40.7803ZM103.589 39.3467C105.209 37.7043 107.081 35.8402 109.244 33.6768C107.081 35.8402 105.209 37.7042 103.589 39.3467ZM103.357 25.6338C101.031 27.889 98.9786 29.8276 97.168 31.5215L93.8594 34.6055C96.3623 32.2714 99.4799 29.3928 103.357 25.6338ZM106.916 137.143C106.803 137.291 106.686 137.441 106.566 137.593C106.686 137.441 106.803 137.291 106.916 137.143ZM109.653 132.204C109.606 132.348 109.556 132.49 109.504 132.632C109.556 132.49 109.606 132.348 109.653 132.204ZM109.292 133.174C109.233 133.316 109.171 133.459 109.107 133.601C109.171 133.459 109.233 133.316 109.292 133.174ZM15.1348 113.805C15.1248 113.822 15.1144 113.84 15.1046 113.857C15.1144 113.84 15.1248 113.822 15.1348 113.805ZM16.9698 110.756C17.0631 110.608 17.1575 110.458 17.2549 110.306C17.1575 110.458 17.0631 110.608 16.9698 110.756ZM93.6436 55.9619C93.6533 55.7713 93.6637 55.5839 93.6768 55.3994C93.6637 55.5839 93.6533 55.7713 93.6436 55.9619ZM96.5538 47.2451C96.6951 47.0437 96.8429 46.8402 96.9971 46.6338C96.8429 46.8402 96.6951 47.0437 96.5538 47.2451ZM100.002 43.082C100.286 42.7733 100.585 42.4584 100.894 42.1318C100.585 42.4584 100.286 42.7733 100.002 43.082ZM102.682 40.2695C102.975 39.9695 103.277 39.6625 103.589 39.3467C103.277 39.6625 102.975 39.9695 102.682 40.2695Z" fill="url(#paint0_linear_2328_149)"/>
<path fill-rule="evenodd" clip-rule="evenodd" d="M14.0303 116.194C12.8472 116.437 45.427 59.055 84.4258 74.1657C84.4617 37.2389 78.984 49.6696 105.776 23.2699L109.244 19.8008L173.999 84.5726L170.531 88.0417C144.283 114.297 156.889 109.74 119.675 109.425C133.897 149.195 76.5379 180.806 77.1314 179.776C82.2059 170.975 73.3631 165.001 73.3631 165.001C72.8354 167.023 68.2085 180.923 48.5697 173.639C47.4368 173.221 47.0146 171.704 47.8389 171.143C51.9013 168.201 58.3742 159.013 48.3621 153.085C39.2835 147.699 29.3866 158.747 27.7236 165.813C27.4731 166.994 25.7647 166.835 25.0847 165.581C14.1577 144.28 10.2153 132.552 29.3659 122.169C28.3548 120.789 21.4548 114.667 14.0303 116.194ZM109.244 33.6767C89.1713 53.7546 94.0843 48.0206 94.2337 79.0984V83.9764H89.3568C61.3861 84.0014 62.5526 78.4796 43.9467 98.9905L94.8296 149.886C114.901 129.811 109.988 135.565 109.813 104.492L109.84 99.5867L114.744 99.5596C142.717 99.5596 141.517 105.082 160.127 84.5726L109.244 33.6767Z" fill="#260A1E" style="mix-blend-mode:darken"/>
<path d="M183.898 84.5723L175.482 92.9902C169 99.4731 165.074 103.892 161.824 107.319C158.788 110.522 155.872 113.416 152.034 115.104C148.131 116.822 144.034 116.97 139.533 116.908C137.219 116.876 134.441 116.771 131.246 116.67C130.399 116.643 129.514 116.616 128.585 116.59C131.187 136.381 119.733 153.349 108.514 164.8C101.858 171.593 94.7984 176.981 89.4581 180.604C86.7811 182.419 84.4881 183.824 82.8321 184.766C82.0205 185.227 81.2872 185.62 80.7013 185.901C80.4687 186.013 80.0081 186.231 79.4952 186.405C79.3472 186.456 79.1033 186.534 78.8009 186.605C78.5872 186.656 77.9198 186.811 77.0558 186.8C76.6231 186.794 75.7724 186.746 74.7735 186.389C73.7225 186.012 72.1492 185.148 71.0841 183.325C70.3677 182.099 70.1225 180.915 70.1163 179.879C64.2523 183.247 56.2809 183.965 46.1359 180.202C43.2638 179.138 41.4328 176.781 40.7423 174.378C40.0934 172.12 40.1473 168.037 43.7335 165.475C44.1337 165.185 44.8034 164.57 45.4347 163.725C46.0662 162.879 46.4457 162.089 46.5987 161.493C46.7345 160.965 46.6539 160.781 46.63 160.725C46.6022 160.659 46.3219 160.013 44.796 159.109L44.7901 159.105C43.7038 158.461 42.1598 158.281 39.5626 160.303C36.844 162.42 34.9584 165.627 34.5372 167.416L34.5353 167.415C34.0783 169.386 32.8946 171.184 31.0704 172.35C29.3145 173.472 27.4385 173.717 25.9386 173.582C23.0037 173.318 20.3606 171.554 18.9308 168.916L18.8927 168.847L18.8566 168.775C16.1114 163.424 13.6583 158.398 11.9015 153.744C10.1521 149.11 8.91779 144.404 8.9464 139.738C8.97628 134.875 10.3797 130.305 13.4659 126.158C14.3012 125.036 15.2397 123.97 16.2755 122.955C15.9855 122.964 15.7069 122.996 15.4405 123.051C13.9013 123.367 11.2444 123.297 9.08995 121.169C7.33915 119.44 7.08354 117.426 7.02648 116.779C6.90435 115.396 7.23942 114.299 7.27452 114.173C7.45492 113.525 7.70428 112.965 7.82433 112.701C8.12729 112.034 8.54612 111.239 9.01671 110.403C9.9838 108.686 11.4221 106.349 13.2696 103.65C16.9587 98.2611 22.4368 91.192 29.298 84.5684C40.7946 73.4697 57.7997 62.1754 77.3204 65.0693C77.2181 60.7672 77.0704 57.429 77.0108 54.4893C76.9218 50.0903 76.9865 46.0021 78.5968 42.0996C80.2079 38.1954 83.0536 35.2286 86.295 32.1172C89.8443 28.7103 94.109 24.9368 100.825 18.3203L109.244 9.90039L183.898 84.5723ZM83.1954 183.272C83.2093 183.248 83.2576 183.166 83.3273 183.033C83.283 183.112 83.2411 183.193 83.1954 183.272ZM105.775 23.2695C78.9838 49.6693 84.4619 37.2392 84.4259 74.166C45.4272 59.0553 12.8473 116.437 14.0304 116.193C21.4547 114.667 28.355 120.789 29.3663 122.169C10.2158 132.552 14.158 144.281 25.0851 165.581C25.7652 166.835 27.4732 166.994 27.7237 165.812C29.3869 158.747 39.2839 147.698 48.3624 153.085C58.3744 159.012 51.9014 168.2 47.839 171.143C47.0148 171.703 47.4367 173.221 48.5694 173.639C68.2083 180.923 72.8357 167.023 73.3634 165.001C73.3852 165.016 82.1993 170.986 77.131 179.776C76.5456 180.801 133.895 149.193 119.675 109.425C156.888 109.741 144.283 114.297 170.531 88.042L173.999 84.5723L109.244 19.8008L105.775 23.2695ZM51.9884 176.778C52.0287 176.749 52.0684 176.719 52.1075 176.688C52.0673 176.718 52.0283 176.749 51.9884 176.778ZM160.127 84.5723C141.517 105.082 142.717 99.5596 114.744 99.5596L109.84 99.5869L109.813 104.492C109.988 135.565 114.9 129.811 94.8292 149.887L43.9464 98.9902C62.5523 78.4794 61.3862 84.0016 89.3566 83.9766H94.2335V79.0986C94.084 48.0208 89.1715 53.7547 109.244 33.6768L160.127 84.5723ZM109.247 43.5801C106.839 46.0082 105.08 47.8373 103.739 49.4121C101.746 51.7533 101.206 52.9415 100.94 53.9883C100.595 55.3426 100.516 57.188 100.688 61.4307C100.85 65.4504 101.195 71.1301 101.234 79.0645V90.9766H89.3566C82.1521 90.9828 76.7534 90.6289 72.7491 90.4404C68.5623 90.2434 66.3659 90.2685 64.6085 90.6455C62.1637 91.17 59.7564 92.5132 53.6739 98.8184L94.8263 139.982C97.234 137.555 98.9933 135.728 100.334 134.154C102.327 131.815 102.865 130.63 103.129 129.59C103.472 128.241 103.55 126.401 103.374 122.16C103.208 118.143 102.857 112.465 102.813 104.531V104.454L102.878 92.625L114.705 92.5596H114.744C121.953 92.5596 127.352 92.9183 131.355 93.1104C135.539 93.3111 137.729 93.2872 139.481 92.9121C141.917 92.3902 144.315 91.05 150.4 84.7422L109.247 43.5801Z" fill="url(#paint1_linear_2328_149)"/>
<defs>
<linearGradient id="paint0_linear_2328_149" x1="147.999" y1="41.3008" x2="19.4991" y2="176.301" gradientUnits="userSpaceOnUse">
<stop stop-color="#490076"/>
<stop offset="1" stop-color="#560052"/>
</linearGradient>
<linearGradient id="paint1_linear_2328_149" x1="148.499" y1="49.3008" x2="23.4991" y2="170.801" gradientUnits="userSpaceOnUse">
<stop stop-color="#9D00FF"/>
<stop offset="1" stop-color="#B900B1"/>
</linearGradient>
</defs>
</svg>
